:SAMPLES-PER-SECOND 30
:FRAME-RANGE 1-663
:FULLY-SPECIFIED
:DEGREES
21
root  69.7623 39.9727 40.9171 -0.0377515 -48.1753 2.99638
RightUpLeg  4.59288 -5.66849 -3.15463
RightLeg  2.07895 -14.0028 0.747364
RightFoot  -9.49451 -0.170496 6.56448
RightToes  2.91037e-010 0 -3.6325e-017
Spine  3.80587 0.268332 -0.494577
Spine1  -1.88999 0.562091 -1.76394
HEad  16.5984 2.16973 -3.92161
LeftShoulder1  1.41415 -0.216986 -31.9548
LeftArm  23.4183 5.59195 -34.7718
LeftForeArm  0.32769 -11.3737 -14.9543
LeftHand  0.358146 -1.9126 -5.7414
RightShoulder  9.54288 12.5584 51.9945
RightArm  26.3214 1.9875 19.0497
RightForeArm  14.4556 3.25221 17.7584
RightHand  0.486057 4.62714 5.3312
LeftUpLeg  -4.50571 4.54242 -1.93332
LeftLeg  2.24691 5.05583 -2.59962
LeftFoot  -0.501193 0.173982 -1.8023
LeftToes  -4.9116e-011 5.71383e-011 -3.31847e-011
22
root  69.731 39.9219 40.9168 0.303435 -47.952 2.78866
RightUpLeg  4.27876 -5.80385 -3.03316
RightLeg  2.5406 -13.9607 0.759851
RightFoot  -9.9692 -0.147669 6.66303
RightToes  2.91037e-010 0 -3.6325e-017
Spine  4.12261 0.28651 0.155123
Spine1  -1.92372 0.627143 -1.85588
HEad  16.1668 1.79623 -3.99708
LeftShoulder1  1.42401 -0.232317 -32.0631
LeftArm  23.8737 5.50531 -34.6321
LeftForeArm  -0.409317 -12.0565 -14.5302
LeftHand  0.358392 -1.89105 -5.77931
RightShoulder  9.42191 12.4436 51.7127
RightArm  26.0284 2.08758 19.0826
RightForeArm  14.268 2.99056 17.8385
RightHand  0.488301 4.61786 5.36269
LeftUpLeg  -5.77049 4.39907 -1.81621
LeftLeg  4.47646 4.93154 -2.34435
LeftFoot  -1.58837 0.168549 -1.86382
LeftToes  -4.9116e-011 5.71383e-011 -3.31847e-011
23
root  69.7196 39.7779 40.9321 0.969905 -47.5397 2.10376
RightUpLeg  3.47844 -5.96556 -2.64008
RightLeg  4.224 -13.9595 0.536578
RightFoot  -11.183 -0.0858991 7.13507
RightToes  2.91037e-010 0 -3.6325e-017
Spine  4.52441 0.274715 1.46517
Spine1  -1.91061 0.702682 -2.01109
HEad  15.5636 1.28503 -4.05217
LeftShoulder1  1.42664 -0.244012 -32.0145
LeftArm  23.6214 5.2518 -34.7381
LeftForeArm  -0.570275 -12.4688 -14.2122
LeftHand  0.35804 -1.92988 -5.79001
RightShoulder  9.39346 12.496 51.3941
RightArm  26.2664 2.01993 19.0766
RightForeArm  13.3743 3.25378 17.819
RightHand  0.499849 4.605 5.50409
LeftUpLeg  -8.13125 6.39557 -1.75145
LeftLeg  8.92959 2.5191 -1.64948
LeftFoot  -3.58652 0.161249 -2.06105
LeftToes  -4.9116e-011 5.71383e-011 -3.31847e-011
24
root  69.7186 39.5536 40.9663 1.6194 -47.035 1.13843
RightUpLeg  2.47654 -6.33152 -2.15625
RightLeg  6.95824 -13.8871 0.166776
RightFoot  -13.0227 0.0247873 7.71009
RightToes  2.91037e-010 0 -3.6325e-017
Spine  5.34314 0.270743 3.07299
Spine1  -2.07989 0.795728 -2.00484
HEad  14.9316 0.676573 -4.14947
LeftShoulder1  1.42697 -0.247841 -31.9845
LeftArm  23.6341 5.08314 -34.916
LeftForeArm  -0.777157 -13.1379 -13.7035
LeftHand  0.35584 -1.95827 -5.6918
RightShoulder  9.46197 12.7417 50.9916
RightArm  25.8633 1.86473 19.1287
RightForeArm  13.797 3.22085 17.7692
RightHand  0.506247 4.61622 5.57112
LeftUpLeg  -11.2063 11.2374 -2.18661
LeftLeg  14.9142 -2.6592 -0.827144
LeftFoot  -5.37632 0.138843 -2.04483
LeftToes  -4.9116e-011 5.71383e-011 -3.31847e-011
25
root  69.7048 39.3523 41.0096 1.90521 -46.4163 0.438782
RightUpLeg  1.78367 -6.76918 -1.84884
RightLeg  9.4392 -13.8572 -0.191828
RightFoot  -14.5583 0.13152 8.19382
RightToes  2.91037e-010 0 -3.6325e-017
Spine  6.31784 0.267922 4.23607
Spine1  -2.14672 0.864378 -1.8122
HEad  14.4914 -0.164137 -3.97457
LeftShoulder1  1.42285 -0.233401 -32.021
LeftArm  24.064 4.86706 -35.0616
LeftForeArm  -1.37248 -13.9342 -13.1124
LeftHand  0.352982 -1.97542 -5.5461
RightShoulder  9.57341 12.9546 50.9245
RightArm  26.7939 2.11421 18.9539
RightForeArm  13.0462 3.33205 17.8548
RightHand  0.491336 4.53973 5.44546
LeftUpLeg  -14.6987 11.6569 -1.744
LeftLeg  21.9528 -3.45605 -1.20769
LeftFoot  -5.68505 0.211428 -3.58884
LeftToes  -4.9116e-011 5.71383e-011 -3.31847e-011
26
root  69.6577 39.1757 41.0956 2.03535 -45.6907 0.0215253
RightUpLeg  1.28532 -7.12922 -1.64706
RightLeg  11.5196 -13.9501 -0.634904
RightFoot  -15.8751 0.236699 8.68957
RightToes  2.91037e-010 0 -3.6325e-017
Spine  7.10959 0.258073 5.08771
Spine1  -2.22053 0.907145 -1.58629
HEad  14.4664 -1.06588 -3.6713
LeftShoulder1  1.41705 -0.221259 -31.9894
LeftArm  24.2943 4.77105 -35.2628
LeftForeArm  -1.84756 -14.4221 -12.7377
LeftHand  0.349909 -1.96513 -5.37054
RightShoulder  9.77538 13.2218 51.1621
RightArm  26.3232 2.57085 18.6108
RightForeArm  13.8704 2.30507 18.1142
RightHand  0.476216 4.49586 5.29564
LeftUpLeg  -18.3942 11.8026 -1.24941
LeftLeg  29.0745 -3.97621 -2.05678
LeftFoot  -4.38604 0.395916 -6.07922
LeftToes  -4.9116e-011 5.71383e-011 -3.31847e-011
27
root  69.5644 39.0327 41.2392 2.08685 -45.1406 -0.182542
RightUpLeg  1.02698 -7.71289 -1.76948
RightLeg  13.1399 -13.8451 -0.744708
RightFoot  -16.8704 0.316094 8.90398
RightToes  2.91037e-010 0 -3.6325e-017
Spine  7.42123 0.326574 5.69678
Spine1  -2.02438 1.03973 -1.59187
HEad  14.7126 -1.88977 -3.1903
LeftShoulder1  1.40457 -0.222915 -31.6367
LeftArm  23.844 5.02722 -35.654
LeftForeArm  -1.56515 -14.5499 -12.5809
LeftHand  0.349424 -1.99741 -5.33641
RightShoulder  9.93654 13.4563 51.2829
RightArm  24.9495 2.92706 18.5416
RightForeArm  15.1538 0.920201 18.3217
RightHand  0.464859 4.44004 5.1958
LeftUpLeg  -21.7869 12.3143 -0.84465
LeftLeg  35.2316 -4.58928 -3.12818
LeftFoot  -1.73795 0.749367 -8.78574
LeftToes  -4.9116e-011 5.71383e-011 -3.31847e-011
28
root  69.4339 38.8931 41.4739 2.32298 -44.8791 -0.414771
RightUpLeg  0.766603 -8.10292 -1.83922
RightLeg  14.5559 -13.5892 -0.95049
RightFoot  -17.7154 0.389549 9.14064
RightToes  2.91037e-010 0 -3.6325e-017
Spine  7.53838 0.454902 6.35348
Spine1  -2.01873 1.22978 -1.69047
HEad  15.4324 -2.53328 -2.82565
LeftShoulder1  1.38334 -0.172628 -31.5739
LeftArm  24.4867 5.72011 -35.6192
LeftForeArm  -2.14204 -15.0096 -12.2441
LeftHand  0.364391 -2.08447 -5.49888
RightShoulder  10.0182 13.558 51.3933
RightArm  23.7481 3.09526 18.4789
RightForeArm  16.1886 -0.127316 18.415
RightHand  0.473743 4.53074 5.24585
LeftUpLeg  -24.3635 12.9977 -0.248383
LeftLeg  39.1502 -4.98753 -3.98105
LeftFoot  -0.923019 1.17421 -12.7781
LeftToes  -4.9116e-011 5.71383e-011 -3.31847e-011
29
root  69.2812 38.8604 41.7739 2.49888 -44.9679 -0.287853
RightUpLeg  1.01115 -8.32772 -2.2262
RightLeg  14.53 -13.2138 -0.82444
RightFoot  -17.8892 0.416055 9.37995
RightToes  2.91037e-010 0 -3.6325e-017
Spine  7.53994 0.619056 6.54779
Spine1  -2.14726 1.43207 -2.12556
HEad  15.8884 -2.71548 -2.59145
LeftShoulder1  1.35408 -0.0849593 -31.6768
LeftArm  25.1368 6.74677 -35.2172
LeftForeArm  -2.73179 -15.267 -12.0852
LeftHand  0.363899 -2.0608 -5.5109
RightShoulder  10.012 13.5 51.5339
RightArm  24.8312 3.04676 18.41
RightForeArm  15.3071 0.215905 18.4717
RightHand  0.460195 4.50357 5.10362
LeftUpLeg  -25.9903 14.1074 -0.00590199
LeftLeg  39.6572 -4.93947 -4.01451
LeftFoot  -1.40762 1.07695 -12.2595
LeftToes  -4.9116e-011 5.71383e-011 -3.31847e-011
30
root  69.1103 38.9294 42.1229 2.46841 -45.136 0.31754
RightUpLeg  1.76106 -8.4422 -2.95252
RightLeg  13.2254 -12.9825 -0.527615
RightFoot  -17.4572 0.390809 9.51704
RightToes  2.91037e-010 0 -3.6325e-017
Spine  7.4342 0.763078 5.91492
Spine1  -2.23192 1.51965 -2.43809
HEad  15.7296 -2.71752 -2.625
LeftShoulder1  1.32971 -0.00628439 -31.8274
LeftArm  23.9816 7.96373 -34.8113
LeftForeArm  -1.74362 -14.6581 -12.5227
LeftHand  0.365545 -2.10712 -5.49806
RightShoulder  9.87884 13.3056 51.4401
RightArm  25.7178 2.88031 18.5167
RightForeArm  14.6715 1.00966 18.3855
RightHand  0.461864 4.49688 5.12706
LeftUpLeg  -26.6154 14.671 0.0492931
LeftLeg  36.7502 -3.81337 -2.699
LeftFoot  -2.66969 0.834572 -10.7734
LeftToes  -4.9116e-011 5.71383e-011 -3.31847e-011
31
root  68.9308 38.9979 42.533 2.48831 -45.2586 0.897126
RightUpLeg  2.73825 -8.54076 -3.7422
RightLeg  11.5586 -12.6604 -0.148582
RightFoot  -17.0057 0.380307 10.0018
RightToes  2.91037e-010 0 -3.6325e-017
Spine  7.21939 0.844423 5.17807
Spine1  -2.13484 1.54368 -2.72589
HEad  15.1199 -2.6818 -2.64359
LeftShoulder1  1.32709 0.00831653 -31.9105
LeftArm  22.483 9.06749 -34.4628
LeftForeArm  -0.949768 -13.5933 -13.2999
LeftHand  0.366552 -1.92929 -5.66455
RightShoulder  9.76629 13.1727 51.2636
RightArm  25.5639 2.57863 18.6062
RightForeArm  14.7815 1.73718 18.1678
RightHand  0.476249 4.48585 5.30207
LeftUpLeg  -26.4604 14.2936 0.393319
LeftLeg  31.7009 -2.37331 -1.2399
LeftFoot  -3.45428 0.666248 -9.35033
LeftToes  -4.9116e-011 5.71383e-011 -3.31847e-011
32
root  68.7459 39.0337 43.0079 2.62685 -45.4321 1.35023
RightUpLeg  3.74883 -8.62609 -4.49699
RightLeg  9.92645 -12.2183 0.184089
RightFoot  -16.7395 0.38508 10.5565
RightToes  2.91037e-010 0 -3.6325e-017
Spine  6.97299 0.919809 4.39554
Spine1  -2.05335 1.56639 -2.95009
HEad  14.4963 -2.65103 -2.47427
LeftShoulder1  1.33527 -0.00642019 -31.9655
LeftArm  20.3452 10.0135 -34.1075
LeftForeArm  0.822017 -11.9193 -14.3692
LeftHand  0.382764 -1.93397 -5.91769
RightShoulder  9.62878 12.9913 51.1018
RightArm  25.9136 2.37402 18.65
RightForeArm  14.7477 2.47459 17.9795
RightHand  0.47017 4.65218 5.13324
LeftUpLeg  -25.8838 13.6829 0.985914
LeftLeg  25.865 -1.61254 -0.522107
LeftFoot  -3.38991 0.615498 -8.55342
LeftToes  -4.9116e-011 5.71383e-011 -3.31847e-011
